<svg width="2858" height="1204" viewBox="0 0 2858 1204" fill="none" xmlns="http://www.w3.org/2000/svg">
<path fill-rule="evenodd" clip-rule="evenodd" d="M2004.4 180.249L2004.6 179.956C2088.22 56.3938 2220.74 2.02539 2378.15 2.02539C2535.39 2.02539 2667.79 56.313 2750.56 180.248C2825.9 291.739 2858 435.669 2858 601.619C2858 769.075 2826.01 914.023 2750.56 1025.68C2667.79 1149.62 2535.39 1203.9 2378.15 1203.9C2220.74 1203.9 2088.22 1149.53 2004.6 1025.97L2004.4 1025.68L2004.2 1025.38C1929.81 913.798 1898.31 768.983 1898.31 601.619C1898.31 435.766 1929.92 291.968 2004.2 180.544L2004.4 180.249ZM2666.09 968.936C2726.19 880.134 2756.24 757.695 2756.24 601.619C2756.24 447.337 2726.19 325.795 2666.09 236.993C2606.89 148.191 2510.91 103.79 2378.15 103.79C2245.4 103.79 2148.97 148.191 2088.88 236.993C2029.67 325.795 2000.07 447.337 2000.07 601.619C2000.07 757.695 2029.67 880.134 2088.88 968.936C2148.97 1057.74 2245.4 1102.14 2378.15 1102.14C2510.91 1102.14 2606.89 1057.74 2666.09 968.936ZM2406.23 431.164L2406.11 430.863C2404.6 427.1 2403.39 425.516 2403.08 425.134C2402.84 424.847 2402.79 424.807 2402.54 424.661C2402.09 424.385 2395.96 420.832 2378.15 420.832C2360.35 420.832 2354.22 424.385 2353.76 424.661C2353.52 424.807 2353.47 424.847 2353.23 425.134C2352.92 425.516 2351.71 427.1 2350.2 430.863L2350.08 431.164L2349.96 431.464C2337.56 461.897 2327.88 515.969 2327.88 601.619C2327.88 659.105 2331.3 703.264 2337.04 735.639C2341.24 758.618 2348.21 772.712 2355.07 781.669C2355.38 781.83 2355.87 782.061 2356.61 782.334C2359.39 783.361 2365.96 785.097 2378.15 785.097C2390.39 785.097 2396.66 783.348 2398.93 782.494C2399.21 782.39 2399.42 782.304 2399.58 782.237C2407.15 773.556 2414.88 759.63 2419.27 735.643C2425.01 703.268 2428.43 659.108 2428.43 601.619C2428.43 515.969 2418.75 461.897 2406.35 431.464L2406.23 431.164ZM2519.43 753.658C2512.25 793.126 2497.45 825.417 2475.03 850.533C2453.5 874.752 2421.21 886.861 2378.15 886.861C2335.1 886.861 2302.36 874.752 2279.93 850.533C2258.41 825.417 2244.05 793.126 2236.88 753.658C2229.7 713.294 2226.12 662.614 2226.12 601.619C2226.12 511.023 2235.98 441.506 2255.72 393.069C2275.45 343.734 2316.26 319.067 2378.15 319.067C2440.05 319.067 2480.86 343.734 2500.59 393.069C2520.33 441.506 2530.19 511.023 2530.19 601.619C2530.19 662.614 2526.61 713.294 2519.43 753.658Z" fill="white"/>
<path fill-rule="evenodd" clip-rule="evenodd" d="M1077.83 693.514L1498 92.5204C1531.68 44.3386 1586.77 15.6367 1645.56 15.6367H1783.48C1882.91 15.6367 1963.52 96.2455 1963.52 195.682V624.335C2028.34 651.58 2073.85 715.667 2073.85 790.385V832.956C2073.85 931.638 1994.46 1011.78 1896.07 1012.99L1818.92 1071.63C1725.42 1142.72 1599.61 1105.13 1550.63 1013H1257.88C1158.44 1013 1077.83 932.392 1077.83 832.956V693.514ZM1631.68 911.236V928.304C1631.68 993.046 1705.8 1029.8 1757.34 990.621L1861.76 911.236H1893.81C1937.04 911.236 1972.09 876.189 1972.09 832.956V790.385C1972.09 747.152 1937.04 712.105 1893.81 712.105H1861.76V195.682C1861.76 152.449 1826.71 117.401 1783.48 117.401H1645.56C1620 117.401 1596.05 129.88 1581.4 150.829L1179.6 725.56V832.956C1179.6 876.189 1214.64 911.236 1257.88 911.236H1631.68ZM1421.78 712.105H1647.83V370.352L1421.78 712.105Z" fill="white"/>
<path fill-rule="evenodd" clip-rule="evenodd" d="M1250.41 960.153L1096.51 1077.35C977.994 1167.61 807.386 1083.09 807.386 934.115V419.464C730.662 398.848 674.183 328.806 674.183 245.573V188.202C674.183 88.7659 754.792 8.15723 854.228 8.15723H1070.37C1169.8 8.15723 1250.41 88.7662 1250.41 188.202V960.153ZM775.948 245.573C775.948 288.806 810.995 323.854 854.228 323.854H909.151V934.115C909.151 998.887 983.328 1035.64 1034.86 996.392L1148.65 909.737V188.202C1148.65 144.969 1113.6 109.922 1070.37 109.922H854.228C810.995 109.922 775.948 144.969 775.948 188.202V245.573Z" fill="white"/>
<path fill-rule="evenodd" clip-rule="evenodd" d="M278.421 634.383L278.752 634.081C324.747 592.121 362.45 549.083 392.517 505.139C419.14 466.229 427.213 436.137 427.213 413.255C427.213 406.691 426.759 401.844 426.198 398.364C425.827 399.124 425.393 400.113 424.923 401.375C404.027 457.516 346.233 544.62 239.457 544.62H175.876C80.8868 544.62 -18.2624 462.204 3.60401 344.586C13.3196 292.326 30.6034 243.536 56.7723 199.665L57.107 199.104L57.4489 198.547C98.2372 132.121 153.277 80.443 222.412 47.1099L222.728 46.9577L223.045 46.8077C289.03 15.5514 360.615 0.683594 436.14 0.683594C559.134 0.683594 669.831 32.3339 749.234 112.859C825.482 189.27 860.82 287.698 860.82 398.455C860.82 519.677 818.828 630.812 740.553 729.46L740.385 729.672L740.215 729.884C720.176 754.864 698.717 779.546 675.866 803.937H695.575C795.012 803.937 875.62 884.546 875.62 983.982V1014.44C875.62 1113.88 795.012 1194.49 695.575 1194.49H384.544L153.005 1067.74C39.2494 1005.47 28.1305 849.842 124.764 769.286C177.082 725.673 228.277 680.945 278.092 634.689L278.421 634.383ZM410.575 905.702C454.203 872.113 494.507 838.191 531.487 803.937C580.423 758.609 623.539 712.698 660.835 666.206C726.315 583.683 759.056 494.432 759.056 398.455C759.056 310.55 731.698 239.239 676.981 184.523C623.162 129.806 542.881 102.448 436.14 102.448C374.247 102.448 317.737 114.558 266.609 138.776C216.377 162.995 175.564 200.668 144.17 251.797C124.986 283.958 111.481 321.088 103.654 363.186C95.6205 406.4 131.922 442.856 175.876 442.856H239.457C282.69 442.856 314.469 406.395 329.55 365.877C333.855 354.313 339.335 344.093 345.992 335.217C365.726 309.204 392.636 296.198 426.721 296.198C460.807 296.198 486.371 306.513 503.414 327.144C520.457 347.775 528.978 376.478 528.978 413.255C528.978 461.692 511.487 511.475 476.504 562.604C441.522 613.732 398.466 662.618 347.338 709.261C296.022 756.912 243.444 802.839 189.926 847.453C155.818 875.886 152.43 924.712 176.983 957.115C183.392 965.572 191.704 972.911 201.87 978.476L410.575 1092.72H695.575C738.809 1092.72 773.856 1057.68 773.856 1014.44V983.982C773.856 940.749 738.809 905.702 695.575 905.702H410.575ZM424.107 390.745C424.107 390.745 424.159 390.818 424.242 390.986C424.145 390.832 424.107 390.745 424.107 390.745Z" fill="white"/>
<path d="M2000.07 601.618C2000.07 447.336 2029.67 325.794 2088.87 236.992C2148.97 148.19 2245.4 103.789 2378.15 103.789C2510.91 103.789 2606.89 148.19 2666.09 236.992C2726.19 325.794 2756.23 447.336 2756.23 601.618C2756.23 757.694 2726.19 880.133 2666.09 968.935C2606.89 1057.74 2510.91 1102.14 2378.15 1102.14C2245.4 1102.14 2148.97 1057.74 2088.87 968.935C2029.67 880.133 2000.07 757.694 2000.07 601.618ZM2530.19 601.618C2530.19 511.022 2520.33 441.505 2500.59 393.068C2480.86 343.734 2440.05 319.066 2378.15 319.066C2316.26 319.066 2275.45 343.734 2255.71 393.068C2235.98 441.505 2226.11 511.022 2226.11 601.618C2226.11 662.613 2229.7 713.293 2236.88 753.657C2244.05 793.125 2258.41 825.417 2279.93 850.532C2302.36 874.751 2335.1 886.86 2378.15 886.86C2421.21 886.86 2453.5 874.751 2475.03 850.532C2497.45 825.417 2512.25 793.125 2519.43 753.657C2526.61 713.293 2530.19 662.613 2530.19 601.618Z" fill="#212121"/>
<path d="M1199.59 911.235C1188.55 911.235 1179.59 902.281 1179.59 891.235V725.559L1598.8 125.941C1602.54 120.589 1608.66 117.4 1615.19 117.4H1841.75C1852.8 117.4 1861.75 126.355 1861.75 137.4V712.104H1952.08C1963.13 712.104 1972.08 721.058 1972.08 732.104V891.235C1972.08 902.281 1963.13 911.235 1952.08 911.235H1861.75L1663.78 1061.74C1650.61 1071.75 1631.68 1062.36 1631.68 1045.82V911.235H1199.59ZM1647.82 370.351L1421.78 712.104H1647.82V370.351Z" fill="#212121"/>
<path d="M795.948 323.853C784.902 323.853 775.948 314.898 775.948 303.853V129.921C775.948 118.875 784.902 109.921 795.948 109.921H1128.65C1139.69 109.921 1148.65 118.875 1148.65 129.921V909.736L941.268 1067.66C928.103 1077.69 909.151 1068.3 909.151 1051.75V323.853H795.948Z" fill="#FBCC31"/>
<path d="M124.852 936.315C112.303 929.445 110.813 912.003 121.966 903.043C199.021 841.142 274.452 776.94 347.337 709.26C398.465 662.617 441.521 613.731 476.503 562.603C511.486 511.474 528.977 461.691 528.977 413.254C528.977 376.477 520.456 347.774 503.413 327.143C486.37 306.512 460.806 296.197 426.72 296.197C392.635 296.197 365.725 309.203 345.991 335.216C329.941 356.616 320.729 385.831 318.355 422.862C317.648 433.885 308.782 442.855 297.736 442.855H116.208C104.978 442.855 95.9084 433.604 96.5754 422.394C100.576 355.147 116.441 298.281 144.169 251.796C175.564 200.668 216.377 162.994 266.608 138.775C317.736 114.557 374.247 102.447 436.139 102.447C542.881 102.447 623.161 129.805 676.98 184.522C731.697 239.238 759.055 310.549 759.055 398.454C759.055 494.431 726.315 583.682 660.835 666.205C595.354 747.831 511.934 827.663 410.575 905.701H753.855C764.901 905.701 773.855 914.655 773.855 925.701V1072.72C773.855 1083.77 764.901 1092.72 753.855 1092.72H410.575L124.852 936.315Z" fill="#FBCC31"/>
</svg>
